<mxfile host="app.diagrams.net" agent="Mozilla/5.0 (Macintosh; Intel Mac OS X 10_15_7) AppleWebKit/537.36 (KHTML, like Gecko) Chrome/134.0.0.0 Safari/537.36" version="26.2.8">
  <diagram name="Page-1" id="nsieuLqxWCfVpQGwszYl">
    <mxGraphModel dx="1236" dy="743" grid="1" gridSize="10" guides="1" tooltips="1" connect="1" arrows="1" fold="1" page="1" pageScale="1" pageWidth="850" pageHeight="1100" math="0" shadow="0">
      <root>
        <mxCell id="0" />
        <mxCell id="1" parent="0" />
        <mxCell id="9GVXW5YihgyE5vcKEz2O-3" value="" style="edgeStyle=orthogonalEdgeStyle;rounded=0;orthogonalLoop=1;jettySize=auto;html=1;" edge="1" parent="1" source="9GVXW5YihgyE5vcKEz2O-1" target="9GVXW5YihgyE5vcKEz2O-2">
          <mxGeometry relative="1" as="geometry" />
        </mxCell>
        <mxCell id="9GVXW5YihgyE5vcKEz2O-1" value="NYC Opendata Source" style="rounded=0;whiteSpace=wrap;html=1;" vertex="1" parent="1">
          <mxGeometry x="50" y="120" width="120" height="60" as="geometry" />
        </mxCell>
        <mxCell id="9GVXW5YihgyE5vcKEz2O-5" value="" style="edgeStyle=orthogonalEdgeStyle;rounded=0;orthogonalLoop=1;jettySize=auto;html=1;" edge="1" parent="1" source="9GVXW5YihgyE5vcKEz2O-2" target="9GVXW5YihgyE5vcKEz2O-4">
          <mxGeometry relative="1" as="geometry" />
        </mxCell>
        <mxCell id="9GVXW5YihgyE5vcKEz2O-2" value="Staging Area" style="whiteSpace=wrap;html=1;rounded=0;" vertex="1" parent="1">
          <mxGeometry x="250" y="120" width="120" height="60" as="geometry" />
        </mxCell>
        <mxCell id="9GVXW5YihgyE5vcKEz2O-7" value="" style="edgeStyle=orthogonalEdgeStyle;rounded=0;orthogonalLoop=1;jettySize=auto;html=1;" edge="1" parent="1" source="9GVXW5YihgyE5vcKEz2O-4" target="9GVXW5YihgyE5vcKEz2O-6">
          <mxGeometry relative="1" as="geometry" />
        </mxCell>
        <mxCell id="9GVXW5YihgyE5vcKEz2O-13" value="" style="edgeStyle=orthogonalEdgeStyle;rounded=0;orthogonalLoop=1;jettySize=auto;html=1;" edge="1" parent="1" source="9GVXW5YihgyE5vcKEz2O-4" target="9GVXW5YihgyE5vcKEz2O-12">
          <mxGeometry relative="1" as="geometry" />
        </mxCell>
        <mxCell id="9GVXW5YihgyE5vcKEz2O-4" value="Cleaning and loading data" style="whiteSpace=wrap;html=1;rounded=0;" vertex="1" parent="1">
          <mxGeometry x="450" y="120" width="120" height="60" as="geometry" />
        </mxCell>
        <mxCell id="9GVXW5YihgyE5vcKEz2O-9" value="" style="edgeStyle=orthogonalEdgeStyle;rounded=0;orthogonalLoop=1;jettySize=auto;html=1;" edge="1" parent="1" source="9GVXW5YihgyE5vcKEz2O-6" target="9GVXW5YihgyE5vcKEz2O-8">
          <mxGeometry relative="1" as="geometry" />
        </mxCell>
        <mxCell id="9GVXW5YihgyE5vcKEz2O-6" value="Data warehouse" style="whiteSpace=wrap;html=1;rounded=0;" vertex="1" parent="1">
          <mxGeometry x="650" y="120" width="120" height="60" as="geometry" />
        </mxCell>
        <mxCell id="9GVXW5YihgyE5vcKEz2O-11" value="" style="edgeStyle=orthogonalEdgeStyle;rounded=0;orthogonalLoop=1;jettySize=auto;html=1;" edge="1" parent="1" source="9GVXW5YihgyE5vcKEz2O-8" target="9GVXW5YihgyE5vcKEz2O-10">
          <mxGeometry relative="1" as="geometry" />
        </mxCell>
        <mxCell id="9GVXW5YihgyE5vcKEz2O-8" value="BI tools" style="whiteSpace=wrap;html=1;rounded=0;" vertex="1" parent="1">
          <mxGeometry x="650" y="260" width="120" height="60" as="geometry" />
        </mxCell>
        <mxCell id="9GVXW5YihgyE5vcKEz2O-10" value="Users" style="whiteSpace=wrap;html=1;rounded=0;" vertex="1" parent="1">
          <mxGeometry x="650" y="400" width="120" height="60" as="geometry" />
        </mxCell>
        <mxCell id="9GVXW5YihgyE5vcKEz2O-14" value="" style="edgeStyle=orthogonalEdgeStyle;rounded=0;orthogonalLoop=1;jettySize=auto;html=1;" edge="1" parent="1" source="9GVXW5YihgyE5vcKEz2O-12" target="9GVXW5YihgyE5vcKEz2O-8">
          <mxGeometry relative="1" as="geometry" />
        </mxCell>
        <mxCell id="9GVXW5YihgyE5vcKEz2O-12" value="Data marts" style="whiteSpace=wrap;html=1;rounded=0;" vertex="1" parent="1">
          <mxGeometry x="450" y="260" width="120" height="60" as="geometry" />
        </mxCell>
      </root>
    </mxGraphModel>
  </diagram>
</mxfile>
